<mxfile host="app.diagrams.net" modified="2023-08-14T08:01:07.344Z" agent="Mozilla/5.0 (Windows NT 10.0; Win64; x64) AppleWebKit/537.36 (KHTML, like Gecko) Chrome/115.0.0.0 Safari/537.36 Edg/115.0.1901.203" etag="4B6uhSD8S15jIi0RsnMj" version="21.6.8" type="github">
  <diagram name="Page-1" id="4HQ8YgI5x_i-oC57xCaw">
    <mxGraphModel dx="1050" dy="573" grid="1" gridSize="10" guides="1" tooltips="1" connect="1" arrows="1" fold="1" page="1" pageScale="1" pageWidth="850" pageHeight="1100" math="0" shadow="0">
      <root>
        <mxCell id="0" />
        <mxCell id="1" parent="0" />
        <mxCell id="KvVlC2yseujIQmBRU8fb-1" value="" style="rounded=0;whiteSpace=wrap;html=1;" parent="1" vertex="1">
          <mxGeometry x="10" y="90" width="160" height="300" as="geometry" />
        </mxCell>
        <mxCell id="KvVlC2yseujIQmBRU8fb-2" value="logo" style="ellipse;shape=doubleEllipse;whiteSpace=wrap;html=1;aspect=fixed;" parent="1" vertex="1">
          <mxGeometry x="50" y="110" width="80" height="80" as="geometry" />
        </mxCell>
        <mxCell id="KvVlC2yseujIQmBRU8fb-4" value="email" style="text;html=1;strokeColor=none;fillColor=none;align=center;verticalAlign=middle;whiteSpace=wrap;rounded=0;" parent="1" vertex="1">
          <mxGeometry x="20" y="205" width="60" height="30" as="geometry" />
        </mxCell>
        <mxCell id="KvVlC2yseujIQmBRU8fb-11" value="" style="verticalLabelPosition=bottom;verticalAlign=top;html=1;shape=mxgraph.basic.rect;fillColor2=none;strokeWidth=1;size=20;indent=5;" parent="1" vertex="1">
          <mxGeometry x="30" y="270" width="120" height="20" as="geometry" />
        </mxCell>
        <mxCell id="KvVlC2yseujIQmBRU8fb-12" value="login" style="rounded=0;whiteSpace=wrap;html=1;" parent="1" vertex="1">
          <mxGeometry x="50" y="300" width="80" height="20" as="geometry" />
        </mxCell>
        <mxCell id="KvVlC2yseujIQmBRU8fb-14" value="password" style="text;html=1;strokeColor=none;fillColor=none;align=center;verticalAlign=middle;whiteSpace=wrap;rounded=0;" parent="1" vertex="1">
          <mxGeometry x="30" y="250" width="60" height="20" as="geometry" />
        </mxCell>
        <mxCell id="KvVlC2yseujIQmBRU8fb-16" value="Register" style="rounded=0;whiteSpace=wrap;html=1;" parent="1" vertex="1">
          <mxGeometry x="50" y="330" width="80" height="20" as="geometry" />
        </mxCell>
        <mxCell id="KvVlC2yseujIQmBRU8fb-18" value="" style="rounded=0;whiteSpace=wrap;html=1;verticalAlign=middle;align=center;gradientColor=none;fillColor=default;glass=0;" parent="1" vertex="1">
          <mxGeometry x="180" y="90" width="160" height="300" as="geometry" />
        </mxCell>
        <mxCell id="KvVlC2yseujIQmBRU8fb-21" value="Registration" style="rounded=0;whiteSpace=wrap;html=1;" parent="1" vertex="1">
          <mxGeometry x="180" y="90" width="160" height="40" as="geometry" />
        </mxCell>
        <mxCell id="KvVlC2yseujIQmBRU8fb-23" value="name" style="text;html=1;strokeColor=none;fillColor=none;align=center;verticalAlign=middle;whiteSpace=wrap;rounded=0;" parent="1" vertex="1">
          <mxGeometry x="200" y="140" width="60" height="30" as="geometry" />
        </mxCell>
        <mxCell id="KvVlC2yseujIQmBRU8fb-28" value="" style="verticalLabelPosition=bottom;verticalAlign=top;html=1;shape=mxgraph.basic.rect;fillColor2=none;strokeWidth=1;size=20;indent=5;" parent="1" vertex="1">
          <mxGeometry x="30" y="230" width="120" height="20" as="geometry" />
        </mxCell>
        <mxCell id="KvVlC2yseujIQmBRU8fb-29" value="" style="verticalLabelPosition=bottom;verticalAlign=top;html=1;shape=mxgraph.basic.rect;fillColor2=none;strokeWidth=1;size=20;indent=5;" parent="1" vertex="1">
          <mxGeometry x="200" y="170" width="120" height="20" as="geometry" />
        </mxCell>
        <mxCell id="KvVlC2yseujIQmBRU8fb-30" value="email" style="text;html=1;strokeColor=none;fillColor=none;align=center;verticalAlign=middle;whiteSpace=wrap;rounded=0;" parent="1" vertex="1">
          <mxGeometry x="200" y="195" width="60" height="20" as="geometry" />
        </mxCell>
        <mxCell id="KvVlC2yseujIQmBRU8fb-32" value="" style="verticalLabelPosition=bottom;verticalAlign=top;html=1;shape=mxgraph.basic.rect;fillColor2=none;strokeWidth=1;size=20;indent=5;" parent="1" vertex="1">
          <mxGeometry x="200" y="215" width="120" height="20" as="geometry" />
        </mxCell>
        <mxCell id="KvVlC2yseujIQmBRU8fb-33" value="password" style="text;html=1;strokeColor=none;fillColor=none;align=center;verticalAlign=middle;whiteSpace=wrap;rounded=0;" parent="1" vertex="1">
          <mxGeometry x="200" y="240" width="60" height="20" as="geometry" />
        </mxCell>
        <mxCell id="KvVlC2yseujIQmBRU8fb-34" value="" style="verticalLabelPosition=bottom;verticalAlign=top;html=1;shape=mxgraph.basic.rect;fillColor2=none;strokeWidth=1;size=20;indent=5;" parent="1" vertex="1">
          <mxGeometry x="200" y="260" width="120" height="20" as="geometry" />
        </mxCell>
        <mxCell id="KvVlC2yseujIQmBRU8fb-35" value="confirm password" style="text;html=1;strokeColor=none;fillColor=none;align=center;verticalAlign=middle;whiteSpace=wrap;rounded=0;" parent="1" vertex="1">
          <mxGeometry x="200" y="280" width="110" height="20" as="geometry" />
        </mxCell>
        <mxCell id="KvVlC2yseujIQmBRU8fb-36" value="" style="verticalLabelPosition=bottom;verticalAlign=top;html=1;shape=mxgraph.basic.rect;fillColor2=none;strokeWidth=1;size=20;indent=5;" parent="1" vertex="1">
          <mxGeometry x="200" y="300" width="120" height="20" as="geometry" />
        </mxCell>
        <mxCell id="KvVlC2yseujIQmBRU8fb-37" value="Register" style="rounded=0;whiteSpace=wrap;html=1;" parent="1" vertex="1">
          <mxGeometry x="220" y="340" width="80" height="20" as="geometry" />
        </mxCell>
        <mxCell id="KvVlC2yseujIQmBRU8fb-38" value="" style="rounded=0;whiteSpace=wrap;html=1;verticalAlign=middle;align=center;gradientColor=none;fillColor=default;glass=0;" parent="1" vertex="1">
          <mxGeometry x="350" y="110" width="160" height="280" as="geometry" />
        </mxCell>
        <mxCell id="KvVlC2yseujIQmBRU8fb-39" value="Dashbord" style="rounded=0;whiteSpace=wrap;html=1;" parent="1" vertex="1">
          <mxGeometry x="350" y="90" width="160" height="40" as="geometry" />
        </mxCell>
        <mxCell id="KvVlC2yseujIQmBRU8fb-41" value="" style="rounded=1;whiteSpace=wrap;html=1;" parent="1" vertex="1">
          <mxGeometry x="360" y="155" width="140" height="85" as="geometry" />
        </mxCell>
        <mxCell id="KvVlC2yseujIQmBRU8fb-42" value="Total balance" style="text;html=1;strokeColor=none;fillColor=none;align=center;verticalAlign=middle;whiteSpace=wrap;rounded=0;" parent="1" vertex="1">
          <mxGeometry x="365" y="155" width="60" height="30" as="geometry" />
        </mxCell>
        <mxCell id="KvVlC2yseujIQmBRU8fb-54" value="Expence" style="ellipse;whiteSpace=wrap;html=1;aspect=fixed;" parent="1" vertex="1">
          <mxGeometry x="449" y="190" width="50" height="50" as="geometry" />
        </mxCell>
        <mxCell id="KvVlC2yseujIQmBRU8fb-55" value="Income" style="ellipse;whiteSpace=wrap;html=1;aspect=fixed;" parent="1" vertex="1">
          <mxGeometry x="365" y="190" width="50" height="50" as="geometry" />
        </mxCell>
        <mxCell id="KvVlC2yseujIQmBRU8fb-64" value="add" style="ellipse;whiteSpace=wrap;html=1;aspect=fixed;" parent="1" vertex="1">
          <mxGeometry x="410" y="350" width="31" height="31" as="geometry" />
        </mxCell>
        <mxCell id="KvVlC2yseujIQmBRU8fb-65" value="" style="rounded=0;whiteSpace=wrap;html=1;" parent="1" vertex="1">
          <mxGeometry x="520" y="90" width="160" height="300" as="geometry" />
        </mxCell>
        <mxCell id="KvVlC2yseujIQmBRU8fb-67" value="Adding" style="rounded=0;whiteSpace=wrap;html=1;" parent="1" vertex="1">
          <mxGeometry x="520" y="90" width="160" height="40" as="geometry" />
        </mxCell>
        <mxCell id="KvVlC2yseujIQmBRU8fb-68" value="Name" style="rounded=1;whiteSpace=wrap;html=1;" parent="1" vertex="1">
          <mxGeometry x="540" y="150" width="120" height="30" as="geometry" />
        </mxCell>
        <mxCell id="KvVlC2yseujIQmBRU8fb-69" value="Explaine" style="rounded=1;whiteSpace=wrap;html=1;" parent="1" vertex="1">
          <mxGeometry x="540" y="185" width="120" height="30" as="geometry" />
        </mxCell>
        <mxCell id="KvVlC2yseujIQmBRU8fb-71" value="Amout" style="rounded=1;whiteSpace=wrap;html=1;" parent="1" vertex="1">
          <mxGeometry x="540" y="220" width="120" height="30" as="geometry" />
        </mxCell>
        <mxCell id="KvVlC2yseujIQmBRU8fb-72" value="haw" style="rounded=1;whiteSpace=wrap;html=1;" parent="1" vertex="1">
          <mxGeometry x="540" y="255" width="120" height="30" as="geometry" />
        </mxCell>
        <mxCell id="KvVlC2yseujIQmBRU8fb-56" value="Trasaction History" style="text;html=1;strokeColor=none;fillColor=none;align=center;verticalAlign=middle;whiteSpace=wrap;rounded=0;" parent="1" vertex="1">
          <mxGeometry x="360" y="240" width="140" height="30" as="geometry" />
        </mxCell>
        <mxCell id="KvVlC2yseujIQmBRU8fb-86" value="&amp;nbsp;HIstory" style="rounded=1;whiteSpace=wrap;html=1;" parent="1" vertex="1">
          <mxGeometry x="370" y="265" width="120" height="10" as="geometry" />
        </mxCell>
        <mxCell id="KvVlC2yseujIQmBRU8fb-88" value="&amp;nbsp;HIstory" style="rounded=1;whiteSpace=wrap;html=1;" parent="1" vertex="1">
          <mxGeometry x="370" y="290" width="120" height="10" as="geometry" />
        </mxCell>
        <mxCell id="KvVlC2yseujIQmBRU8fb-87" value="&amp;nbsp;HIstory" style="rounded=1;whiteSpace=wrap;html=1;" parent="1" vertex="1">
          <mxGeometry x="370" y="310" width="120" height="10" as="geometry" />
        </mxCell>
        <mxCell id="KvVlC2yseujIQmBRU8fb-93" value="Date" style="rounded=1;whiteSpace=wrap;html=1;" parent="1" vertex="1">
          <mxGeometry x="540" y="290" width="120" height="30" as="geometry" />
        </mxCell>
        <mxCell id="KvVlC2yseujIQmBRU8fb-94" value="Save" style="rounded=1;whiteSpace=wrap;html=1;" parent="1" vertex="1">
          <mxGeometry x="570" y="340" width="60" height="30" as="geometry" />
        </mxCell>
        <mxCell id="0Hse-CIwnKnvtip7fA2i-4" value="" style="shape=actor;whiteSpace=wrap;html=1;" vertex="1" parent="1">
          <mxGeometry x="481" y="357.5" width="19" height="25" as="geometry" />
        </mxCell>
        <mxCell id="0Hse-CIwnKnvtip7fA2i-5" value="" style="rounded=1;whiteSpace=wrap;html=1;arcSize=21;" vertex="1" parent="1">
          <mxGeometry x="449" y="362.5" width="20" height="20" as="geometry" />
        </mxCell>
        <mxCell id="0Hse-CIwnKnvtip7fA2i-7" value="" style="rounded=1;whiteSpace=wrap;html=1;arcSize=50;" vertex="1" parent="1">
          <mxGeometry x="455" y="367.5" width="20" height="10" as="geometry" />
        </mxCell>
        <mxCell id="0Hse-CIwnKnvtip7fA2i-10" value="" style="triangle;whiteSpace=wrap;html=1;direction=north;" vertex="1" parent="1">
          <mxGeometry x="360" y="362.5" width="20" height="10" as="geometry" />
        </mxCell>
        <mxCell id="0Hse-CIwnKnvtip7fA2i-18" value="" style="verticalLabelPosition=bottom;verticalAlign=top;html=1;shape=mxgraph.basic.rect;fillColor2=none;strokeWidth=1;size=20;indent=5;direction=south;" vertex="1" parent="1">
          <mxGeometry x="360" y="372.5" width="5" height="10" as="geometry" />
        </mxCell>
        <mxCell id="0Hse-CIwnKnvtip7fA2i-22" value="" style="verticalLabelPosition=bottom;verticalAlign=top;html=1;shape=mxgraph.basic.rect;fillColor2=none;strokeWidth=1;size=20;indent=0;direction=south;" vertex="1" parent="1">
          <mxGeometry x="375" y="372.5" width="5" height="10" as="geometry" />
        </mxCell>
        <mxCell id="0Hse-CIwnKnvtip7fA2i-32" value="" style="rounded=0;whiteSpace=wrap;html=1;" vertex="1" parent="1">
          <mxGeometry x="387.5" y="362.5" width="5" height="20" as="geometry" />
        </mxCell>
        <mxCell id="0Hse-CIwnKnvtip7fA2i-33" value="" style="rounded=0;whiteSpace=wrap;html=1;" vertex="1" parent="1">
          <mxGeometry x="398" y="370" width="5" height="12.5" as="geometry" />
        </mxCell>
        <mxCell id="0Hse-CIwnKnvtip7fA2i-35" value="" style="rounded=0;whiteSpace=wrap;html=1;" vertex="1" parent="1">
          <mxGeometry x="393" y="370" width="5" height="12.5" as="geometry" />
        </mxCell>
        <mxCell id="0Hse-CIwnKnvtip7fA2i-37" value="" style="rounded=0;whiteSpace=wrap;html=1;" vertex="1" parent="1">
          <mxGeometry x="690" y="90" width="160" height="300" as="geometry" />
        </mxCell>
        <mxCell id="0Hse-CIwnKnvtip7fA2i-39" value="Statistics" style="rounded=0;whiteSpace=wrap;html=1;" vertex="1" parent="1">
          <mxGeometry x="690" y="90" width="160" height="30" as="geometry" />
        </mxCell>
        <mxCell id="0Hse-CIwnKnvtip7fA2i-40" value="Day" style="rounded=1;whiteSpace=wrap;html=1;" vertex="1" parent="1">
          <mxGeometry x="690" y="125" width="40" height="25" as="geometry" />
        </mxCell>
        <mxCell id="0Hse-CIwnKnvtip7fA2i-41" value="week" style="rounded=1;whiteSpace=wrap;html=1;" vertex="1" parent="1">
          <mxGeometry x="730" y="125" width="40" height="25" as="geometry" />
        </mxCell>
        <mxCell id="0Hse-CIwnKnvtip7fA2i-45" value="year" style="rounded=1;whiteSpace=wrap;html=1;" vertex="1" parent="1">
          <mxGeometry x="810" y="125" width="40" height="25" as="geometry" />
        </mxCell>
        <mxCell id="0Hse-CIwnKnvtip7fA2i-46" value="months" style="rounded=1;whiteSpace=wrap;html=1;" vertex="1" parent="1">
          <mxGeometry x="770" y="125" width="40" height="25" as="geometry" />
        </mxCell>
        <mxCell id="0Hse-CIwnKnvtip7fA2i-49" value="Static table" style="rounded=0;whiteSpace=wrap;html=1;" vertex="1" parent="1">
          <mxGeometry x="690" y="170" width="160" height="120" as="geometry" />
        </mxCell>
        <mxCell id="0Hse-CIwnKnvtip7fA2i-50" value="spending" style="text;html=1;strokeColor=none;fillColor=none;align=center;verticalAlign=middle;whiteSpace=wrap;rounded=0;" vertex="1" parent="1">
          <mxGeometry x="710" y="300" width="60" height="30" as="geometry" />
        </mxCell>
      </root>
    </mxGraphModel>
  </diagram>
</mxfile>
